{
	"asset":{
		"generator":"Khronos glTF Blender I/O v3.6.28",
		"version":"2.0"
	},
	"scene":0,
	"scenes":[
		{
			"name":"Scene",
			"nodes":[
				0,
				1,
				2,
				3,
				4,
				5,
				6,
				7,
				8
			]
		}
	],
	"nodes":[
		{
			"mesh":0,
			"name":"\u5186\u67f1",
			"rotation":[
				0.002357437275350094,
				0,
				-0.9999973177909851,
				0
			],
			"scale":[
				-1.2165526151657104,
				-0.041389379650354385,
				-0.7895901203155518
			],
			"translation":[
				0.013722002506256104,
				0.050736188888549805,
				-0.047339290380477905
			]
		},
		{
			"mesh":1,
			"name":"\u5186\u67f1.001",
			"rotation":[
				0,
				-0.0023574375081807375,
				0,
				0.9999973177909851
			],
			"scale":[
				-1.5811388492584229,
				-0.03615857660770416,
				-1
			],
			"translation":[
				0.012150570750236511,
				0,
				-0.047346681356430054
			]
		},
		{
			"mesh":2,
			"name":"ICO\u7403",
			"rotation":[
				0,
				0.9847186207771301,
				0,
				0.1741528958082199
			],
			"scale":[
				0.6632024049758911,
				0.026528095826506615,
				0.026528095826506615
			],
			"translation":[
				-0.5048108100891113,
				0.10707062482833862,
				0.220926433801651
			]
		},
		{
			"mesh":3,
			"name":"ICO\u7403.001",
			"rotation":[
				0,
				0.9961116313934326,
				0,
				0.08810010552406311
			],
			"scale":[
				0.48185643553733826,
				0.030916336923837662,
				0.03063080459833145
			],
			"translation":[
				-0.47447890043258667,
				0.09212556481361389,
				0.134144127368927
			]
		},
		{
			"mesh":4,
			"name":"ICO\u7403.002",
			"rotation":[
				0.021683581173419952,
				0.9476765394210815,
				0.024401988834142685,
				0.31755873560905457
			],
			"scale":[
				0.4587225019931793,
				0.022411882877349854,
				0.02732911705970764
			],
			"translation":[
				-0.5422604084014893,
				0.12568053603172302,
				0.27919450402259827
			]
		},
		{
			"mesh":5,
			"name":"ICO\u7403.003",
			"rotation":[
				0,
				0.9578074812889099,
				0,
				0.28741082549095154
			],
			"scale":[
				0.3306370973587036,
				0.029594814404845238,
				0.025358354672789574
			],
			"translation":[
				-0.6677977442741394,
				0.09212556481361389,
				0.2657362222671509
			]
		},
		{
			"mesh":6,
			"name":"ICO\u7403.004",
			"rotation":[
				0.9067550897598267,
				0,
				0.421657919883728,
				0
			],
			"scale":[
				0.09567658603191376,
				0.07033464312553406,
				0.31325286626815796
			],
			"translation":[
				0.4820091724395752,
				0.1410229504108429,
				0.28297099471092224
			]
		},
		{
			"mesh":7,
			"name":"ICO\u7403.005",
			"rotation":[
				0.9534587860107422,
				0,
				0.30152350664138794,
				0
			],
			"scale":[
				0.08877171576023102,
				0.07754634320735931,
				0.26682981848716736
			],
			"translation":[
				0.7184527516365051,
				0.14776712656021118,
				0.28408581018447876
			]
		},
		{
			"mesh":8,
			"name":"ICO\u7403.006",
			"rotation":[
				0,
				0.9999973177909851,
				0,
				0.002357437275350094
			],
			"scale":[
				0.7476918697357178,
				0.2532804012298584,
				0.47229665517807007
			],
			"translation":[
				0.013479992747306824,
				0.24864540994167328,
				-0.3293085992336273
			]
		}
	],
	"materials":[
		{
			"doubleSided":true,
			"name":"\u9244\u677f",
			"pbrMetallicRoughness":{
				"baseColorFactor":[
					0.013315929099917412,
					0.014996550977230072,
					0.008754734881222248,
					1
				],
				"metallicFactor":0,
				"roughnessFactor":0.5
			}
		},
		{
			"doubleSided":true,
			"name":"\u76bf",
			"pbrMetallicRoughness":{
				"baseColorFactor":[
					0.1878148317337036,
					0.08628695458173752,
					0.00712827080860734,
					1
				],
				"metallicFactor":0,
				"roughnessFactor":0.5
			}
		},
		{
			"doubleSided":true,
			"name":"\u3044\u3093\u3052\u3093",
			"pbrMetallicRoughness":{
				"baseColorFactor":[
					0.23254680633544922,
					0.5121604204177856,
					0.24508681893348694,
					1
				],
				"metallicFactor":0,
				"roughnessFactor":0.5
			}
		},
		{
			"doubleSided":true,
			"name":"\u4eba\u53c2",
			"pbrMetallicRoughness":{
				"baseColorFactor":[
					1,
					0.12735715508460999,
					0.052202146500349045,
					1
				],
				"metallicFactor":0,
				"roughnessFactor":0.5
			}
		},
		{
			"doubleSided":true,
			"name":"\u30de\u30c6\u30ea\u30a2\u30eb",
			"pbrMetallicRoughness":{
				"baseColorFactor":[
					0.26410582661628723,
					0.12245988100767136,
					0.0626983642578125,
					1
				],
				"metallicFactor":0,
				"roughnessFactor":0.5
			}
		}
	],
	"meshes":[
		{
			"name":"\u5186\u67f1",
			"primitives":[
				{
					"attributes":{
						"POSITION":0,
						"NORMAL":1,
						"TEXCOORD_0":2
					},
					"indices":3,
					"material":0
				}
			]
		},
		{
			"name":"\u5186\u67f1.001",
			"primitives":[
				{
					"attributes":{
						"POSITION":4,
						"NORMAL":5,
						"TEXCOORD_0":6
					},
					"indices":7,
					"material":1
				}
			]
		},
		{
			"name":"ICO\u7403.001",
			"primitives":[
				{
					"attributes":{
						"POSITION":8,
						"NORMAL":9,
						"TEXCOORD_0":10
					},
					"indices":11,
					"material":2
				}
			]
		},
		{
			"name":"ICO\u7403.003",
			"primitives":[
				{
					"attributes":{
						"POSITION":12,
						"NORMAL":13,
						"TEXCOORD_0":14
					},
					"indices":11,
					"material":2
				}
			]
		},
		{
			"name":"ICO\u7403.004",
			"primitives":[
				{
					"attributes":{
						"POSITION":15,
						"NORMAL":16,
						"TEXCOORD_0":17
					},
					"indices":11,
					"material":2
				}
			]
		},
		{
			"name":"ICO\u7403.005",
			"primitives":[
				{
					"attributes":{
						"POSITION":18,
						"NORMAL":19,
						"TEXCOORD_0":20
					},
					"indices":11,
					"material":2
				}
			]
		},
		{
			"name":"ICO\u7403.006",
			"primitives":[
				{
					"attributes":{
						"POSITION":21,
						"NORMAL":22,
						"TEXCOORD_0":23
					},
					"indices":24,
					"material":3
				}
			]
		},
		{
			"name":"ICO\u7403.007",
			"primitives":[
				{
					"attributes":{
						"POSITION":25,
						"NORMAL":26,
						"TEXCOORD_0":27
					},
					"indices":24,
					"material":3
				}
			]
		},
		{
			"name":"ICO\u7403",
			"primitives":[
				{
					"attributes":{
						"POSITION":28,
						"NORMAL":29,
						"TEXCOORD_0":30
					},
					"indices":24,
					"material":4
				}
			]
		}
	],
	"accessors":[
		{
			"bufferView":0,
			"componentType":5126,
			"count":130,
			"max":[
				1,
				1,
				1
			],
			"min":[
				-1,
				-1,
				-1
			],
			"type":"VEC3"
		},
		{
			"bufferView":1,
			"componentType":5126,
			"count":130,
			"type":"VEC3"
		},
		{
			"bufferView":2,
			"componentType":5126,
			"count":130,
			"type":"VEC2"
		},
		{
			"bufferView":3,
			"componentType":5123,
			"count":372,
			"type":"SCALAR"
		},
		{
			"bufferView":4,
			"componentType":5126,
			"count":1312,
			"max":[
				1,
				1,
				1
			],
			"min":[
				-1,
				-3.7913150787353516,
				-1
			],
			"type":"VEC3"
		},
		{
			"bufferView":5,
			"componentType":5126,
			"count":1312,
			"type":"VEC3"
		},
		{
			"bufferView":6,
			"componentType":5126,
			"count":1312,
			"type":"VEC2"
		},
		{
			"bufferView":7,
			"componentType":5123,
			"count":3012,
			"type":"SCALAR"
		},
		{
			"bufferView":8,
			"componentType":5126,
			"count":63,
			"max":[
				0.9510578513145447,
				1,
				0.9999999403953552
			],
			"min":[
				-0.9510578513145447,
				-1,
				-0.9999999403953552
			],
			"type":"VEC3"
		},
		{
			"bufferView":9,
			"componentType":5126,
			"count":63,
			"type":"VEC3"
		},
		{
			"bufferView":10,
			"componentType":5126,
			"count":63,
			"type":"VEC2"
		},
		{
			"bufferView":11,
			"componentType":5123,
			"count":240,
			"type":"SCALAR"
		},
		{
			"bufferView":12,
			"componentType":5126,
			"count":63,
			"max":[
				0.9510578513145447,
				1,
				0.9999999403953552
			],
			"min":[
				-0.9510578513145447,
				-1,
				-0.9999999403953552
			],
			"type":"VEC3"
		},
		{
			"bufferView":13,
			"componentType":5126,
			"count":63,
			"type":"VEC3"
		},
		{
			"bufferView":14,
			"componentType":5126,
			"count":63,
			"type":"VEC2"
		},
		{
			"bufferView":15,
			"componentType":5126,
			"count":63,
			"max":[
				0.9510578513145447,
				1,
				0.9999999403953552
			],
			"min":[
				-0.9510578513145447,
				-1,
				-0.9999999403953552
			],
			"type":"VEC3"
		},
		{
			"bufferView":16,
			"componentType":5126,
			"count":63,
			"type":"VEC3"
		},
		{
			"bufferView":17,
			"componentType":5126,
			"count":63,
			"type":"VEC2"
		},
		{
			"bufferView":18,
			"componentType":5126,
			"count":63,
			"max":[
				0.9510578513145447,
				1,
				0.9999999403953552
			],
			"min":[
				-0.9510578513145447,
				-1,
				-0.9999999403953552
			],
			"type":"VEC3"
		},
		{
			"bufferView":19,
			"componentType":5126,
			"count":63,
			"type":"VEC3"
		},
		{
			"bufferView":20,
			"componentType":5126,
			"count":63,
			"type":"VEC2"
		},
		{
			"bufferView":21,
			"componentType":5126,
			"count":240,
			"max":[
				0.9510578513145447,
				1,
				0.9999999403953552
			],
			"min":[
				-0.9510578513145447,
				-1,
				-0.9999999403953552
			],
			"type":"VEC3"
		},
		{
			"bufferView":22,
			"componentType":5126,
			"count":240,
			"type":"VEC3"
		},
		{
			"bufferView":23,
			"componentType":5126,
			"count":240,
			"type":"VEC2"
		},
		{
			"bufferView":24,
			"componentType":5123,
			"count":240,
			"type":"SCALAR"
		},
		{
			"bufferView":25,
			"componentType":5126,
			"count":240,
			"max":[
				0.9510578513145447,
				1,
				0.9999999403953552
			],
			"min":[
				-0.9510578513145447,
				-1,
				-0.9999999403953552
			],
			"type":"VEC3"
		},
		{
			"bufferView":26,
			"componentType":5126,
			"count":240,
			"type":"VEC3"
		},
		{
			"bufferView":27,
			"componentType":5126,
			"count":240,
			"type":"VEC2"
		},
		{
			"bufferView":28,
			"componentType":5126,
			"count":240,
			"max":[
				0.9510578513145447,
				1,
				0.9999999403953552
			],
			"min":[
				-0.9510578513145447,
				-1,
				-0.9999999403953552
			],
			"type":"VEC3"
		},
		{
			"bufferView":29,
			"componentType":5126,
			"count":240,
			"type":"VEC3"
		},
		{
			"bufferView":30,
			"componentType":5126,
			"count":240,
			"type":"VEC2"
		}
	],
	"bufferViews":[
		{
			"buffer":0,
			"byteLength":1560,
			"byteOffset":0,
			"target":34962
		},
		{
			"buffer":0,
			"byteLength":1560,
			"byteOffset":1560,
			"target":34962
		},
		{
			"buffer":0,
			"byteLength":1040,
			"byteOffset":3120,
			"target":34962
		},
		{
			"buffer":0,
			"byteLength":744,
			"byteOffset":4160,
			"target":34963
		},
		{
			"buffer":0,
			"byteLength":15744,
			"byteOffset":4904,
			"target":34962
		},
		{
			"buffer":0,
			"byteLength":15744,
			"byteOffset":20648,
			"target":34962
		},
		{
			"buffer":0,
			"byteLength":10496,
			"byteOffset":36392,
			"target":34962
		},
		{
			"buffer":0,
			"byteLength":6024,
			"byteOffset":46888,
			"target":34963
		},
		{
			"buffer":0,
			"byteLength":756,
			"byteOffset":52912,
			"target":34962
		},
		{
			"buffer":0,
			"byteLength":756,
			"byteOffset":53668,
			"target":34962
		},
		{
			"buffer":0,
			"byteLength":504,
			"byteOffset":54424,
			"target":34962
		},
		{
			"buffer":0,
			"byteLength":480,
			"byteOffset":54928,
			"target":34963
		},
		{
			"buffer":0,
			"byteLength":756,
			"byteOffset":55408,
			"target":34962
		},
		{
			"buffer":0,
			"byteLength":756,
			"byteOffset":56164,
			"target":34962
		},
		{
			"buffer":0,
			"byteLength":504,
			"byteOffset":56920,
			"target":34962
		},
		{
			"buffer":0,
			"byteLength":756,
			"byteOffset":57424,
			"target":34962
		},
		{
			"buffer":0,
			"byteLength":756,
			"byteOffset":58180,
			"target":34962
		},
		{
			"buffer":0,
			"byteLength":504,
			"byteOffset":58936,
			"target":34962
		},
		{
			"buffer":0,
			"byteLength":756,
			"byteOffset":59440,
			"target":34962
		},
		{
			"buffer":0,
			"byteLength":756,
			"byteOffset":60196,
			"target":34962
		},
		{
			"buffer":0,
			"byteLength":504,
			"byteOffset":60952,
			"target":34962
		},
		{
			"buffer":0,
			"byteLength":2880,
			"byteOffset":61456,
			"target":34962
		},
		{
			"buffer":0,
			"byteLength":2880,
			"byteOffset":64336,
			"target":34962
		},
		{
			"buffer":0,
			"byteLength":1920,
			"byteOffset":67216,
			"target":34962
		},
		{
			"buffer":0,
			"byteLength":480,
			"byteOffset":69136,
			"target":34963
		},
		{
			"buffer":0,
			"byteLength":2880,
			"byteOffset":69616,
			"target":34962
		},
		{
			"buffer":0,
			"byteLength":2880,
			"byteOffset":72496,
			"target":34962
		},
		{
			"buffer":0,
			"byteLength":1920,
			"byteOffset":75376,
			"target":34962
		},
		{
			"buffer":0,
			"byteLength":2880,
			"byteOffset":77296,
			"target":34962
		},
		{
			"buffer":0,
			"byteLength":2880,
			"byteOffset":80176,
			"target":34962
		},
		{
			"buffer":0,
			"byteLength":1920,
			"byteOffset":83056,
			"target":34962
		}
	],
	"buffers":[
		{
			"byteLength":84976,
			"uri":"data:application/octet-stream;base64,"
		}
	]
}
