{
	"asset":{
		"generator":"Khronos glTF Blender I/O v4.1.63",
		"version":"2.0"
	},
	"scene":0,
	"scenes":[
		{
			"name":"Scene",
			"nodes":[
				0,
				1,
				2,
				3
			]
		}
	],
	"nodes":[
		{
			"mesh":0,
			"name":"Cube",
			"scale":[
				2.7873337268829346,
				1,
				2.400980234146118
			]
		},
		{
			"mesh":1,
			"name":"\u5186",
			"rotation":[
				0.3108504116535187,
				0,
				-0.9504588842391968,
				0
			],
			"scale":[
				-0.44340261816978455,
				-2.071965217590332,
				-0.6869630813598633
			],
			"translation":[
				-0.9858689308166504,
				1.0126454830169678,
				0.7029157876968384
			]
		},
		{
			"mesh":2,
			"name":"\u5186.001",
			"rotation":[
				0.9499357342720032,
				0,
				-0.31244564056396484,
				0
			],
			"scale":[
				-0.26804545521736145,
				-1.0193023681640625,
				-0.5558654069900513
			],
			"translation":[
				0.4309404492378235,
				1.0240452289581299,
				-0.5367071032524109
			]
		},
		{
			"mesh":3,
			"name":"\u5186.002",
			"rotation":[
				0.9499356746673584,
				0,
				-0.31244561076164246,
				0
			],
			"scale":[
				-0.23592597246170044,
				-1.8438880443572998,
				-0.30018216371536255
			],
			"translation":[
				-0.14781498908996582,
				0.9560937285423279,
				-0.7048081159591675
			]
		}
	],
	"materials":[
		{
			"doubleSided":true,
			"name":"Material",
			"pbrMetallicRoughness":{
				"baseColorFactor":[
					0.800000011920929,
					0.800000011920929,
					0.800000011920929,
					1
				],
				"metallicFactor":0,
				"roughnessFactor":0.5
			}
		}
	],
	"meshes":[
		{
			"name":"Cube",
			"primitives":[
				{
					"attributes":{
						"POSITION":0,
						"NORMAL":1,
						"TEXCOORD_0":2
					},
					"indices":3,
					"material":0
				}
			]
		},
		{
			"name":"\u5186",
			"primitives":[
				{
					"attributes":{
						"POSITION":4,
						"NORMAL":5,
						"TEXCOORD_0":6
					},
					"indices":7
				}
			]
		},
		{
			"name":"\u5186.001",
			"primitives":[
				{
					"attributes":{
						"POSITION":8,
						"NORMAL":9,
						"TEXCOORD_0":10
					},
					"indices":7
				}
			]
		},
		{
			"name":"\u5186.002",
			"primitives":[
				{
					"attributes":{
						"POSITION":11,
						"NORMAL":12,
						"TEXCOORD_0":13
					},
					"indices":7
				}
			]
		}
	],
	"accessors":[
		{
			"bufferView":0,
			"componentType":5126,
			"count":24,
			"max":[
				1,
				1,
				1
			],
			"min":[
				-1,
				-1,
				-1
			],
			"type":"VEC3"
		},
		{
			"bufferView":1,
			"componentType":5126,
			"count":24,
			"type":"VEC3"
		},
		{
			"bufferView":2,
			"componentType":5126,
			"count":24,
			"type":"VEC2"
		},
		{
			"bufferView":3,
			"componentType":5123,
			"count":36,
			"type":"SCALAR"
		},
		{
			"bufferView":4,
			"componentType":5126,
			"count":128,
			"max":[
				1.0094735622406006,
				0.04613928124308586,
				1.0782004594802856
			],
			"min":[
				-1,
				0,
				-1
			],
			"type":"VEC3"
		},
		{
			"bufferView":5,
			"componentType":5126,
			"count":128,
			"type":"VEC3"
		},
		{
			"bufferView":6,
			"componentType":5126,
			"count":128,
			"type":"VEC2"
		},
		{
			"bufferView":7,
			"componentType":5123,
			"count":192,
			"type":"SCALAR"
		},
		{
			"bufferView":8,
			"componentType":5126,
			"count":128,
			"max":[
				1.0094735622406006,
				0.04613928124308586,
				1.0782004594802856
			],
			"min":[
				-1,
				0,
				-1
			],
			"type":"VEC3"
		},
		{
			"bufferView":9,
			"componentType":5126,
			"count":128,
			"type":"VEC3"
		},
		{
			"bufferView":10,
			"componentType":5126,
			"count":128,
			"type":"VEC2"
		},
		{
			"bufferView":11,
			"componentType":5126,
			"count":128,
			"max":[
				1.0094735622406006,
				0.04613928124308586,
				1.0782004594802856
			],
			"min":[
				-1,
				0,
				-1
			],
			"type":"VEC3"
		},
		{
			"bufferView":12,
			"componentType":5126,
			"count":128,
			"type":"VEC3"
		},
		{
			"bufferView":13,
			"componentType":5126,
			"count":128,
			"type":"VEC2"
		}
	],
	"bufferViews":[
		{
			"buffer":0,
			"byteLength":288,
			"byteOffset":0,
			"target":34962
		},
		{
			"buffer":0,
			"byteLength":288,
			"byteOffset":288,
			"target":34962
		},
		{
			"buffer":0,
			"byteLength":192,
			"byteOffset":576,
			"target":34962
		},
		{
			"buffer":0,
			"byteLength":72,
			"byteOffset":768,
			"target":34963
		},
		{
			"buffer":0,
			"byteLength":1536,
			"byteOffset":840,
			"target":34962
		},
		{
			"buffer":0,
			"byteLength":1536,
			"byteOffset":2376,
			"target":34962
		},
		{
			"buffer":0,
			"byteLength":1024,
			"byteOffset":3912,
			"target":34962
		},
		{
			"buffer":0,
			"byteLength":384,
			"byteOffset":4936,
			"target":34963
		},
		{
			"buffer":0,
			"byteLength":1536,
			"byteOffset":5320,
			"target":34962
		},
		{
			"buffer":0,
			"byteLength":1536,
			"byteOffset":6856,
			"target":34962
		},
		{
			"buffer":0,
			"byteLength":1024,
			"byteOffset":8392,
			"target":34962
		},
		{
			"buffer":0,
			"byteLength":1536,
			"byteOffset":9416,
			"target":34962
		},
		{
			"buffer":0,
			"byteLength":1536,
			"byteOffset":10952,
			"target":34962
		},
		{
			"buffer":0,
			"byteLength":1024,
			"byteOffset":12488,
			"target":34962
		}
	],
	"buffers":[
		{
			"byteLength":13512,
			"uri":"touhu.bin"
		}
	]
}
